<svg width="366" height="464" viewBox="0 0 366 464" fill="none" xmlns="http://www.w3.org/2000/svg">
<path d="M136.304 8.67968C132.571 20.1463 132.304 36.013 135.504 46.9463C136.704 51.213 141.238 62.2797 145.638 71.613C149.904 80.813 154.438 92.013 155.771 96.413C158.971 107.213 158.704 122.813 155.238 138.68C153.638 145.88 152.438 154.013 152.438 156.68C152.571 160.28 152.838 160.813 153.238 158.413C153.638 156.546 155.371 149.08 157.238 141.746C161.504 125.613 161.904 108.813 158.438 95.7463C157.238 90.9463 152.304 78.9463 147.638 69.0797C134.438 41.4797 132.704 31.3463 137.504 11.0797C138.971 5.21301 139.904 0.279677 139.638 0.0130105C139.371 -0.253656 137.904 3.61301 136.304 8.67968Z" fill="white"/>
<path d="M179.104 41.8797C179.104 46.6797 180.304 54.813 182.304 62.5464C187.371 81.3464 187.771 92.413 184.438 108.413C182.838 115.746 180.571 127.08 179.504 133.746C178.038 142.68 176.171 148.146 172.171 155.213C166.171 166.146 165.504 172.68 169.638 179.346L172.304 183.746H161.104C150.438 183.746 149.904 183.613 147.504 180.146C146.304 178.146 145.238 175.746 145.238 174.813C145.238 173.88 144.704 173.08 144.304 173.08C142.838 173.08 140.304 162.013 140.304 156.013C140.304 153.213 141.504 144.946 143.104 137.613C146.171 123.08 145.904 113.08 142.171 103.746C139.238 96.413 138.704 97.4797 141.104 106.413C143.504 115.08 142.838 125.08 138.971 140.413C134.571 158.013 136.038 168.28 144.304 178.68C146.571 181.346 148.304 183.88 148.304 184.28C148.304 184.68 143.904 185.08 138.704 185.08C123.504 185.08 98.171 187.613 84.3044 190.546C77.371 192.013 70.0377 193.48 68.0377 193.88C65.371 194.546 64.4377 194.013 63.6377 191.88C63.2377 190.28 62.171 189.08 61.2377 189.08C58.3044 189.08 62.571 186.28 70.4377 183.08C78.4377 179.746 77.771 178.546 69.5044 181.346C63.371 183.346 57.6377 187.48 57.6377 189.746C57.6377 194.546 73.9044 199.613 101.638 203.346C126.171 206.813 215.104 206.68 238.971 203.346C261.504 200.146 272.971 197.346 276.571 194.28L279.638 191.746L275.904 188.413C270.838 183.88 246.571 176.813 250.571 181.08C251.638 182.28 251.771 183.613 250.838 185.346C249.771 187.213 250.038 187.746 251.771 187.746C253.104 187.746 253.771 188.013 253.371 188.413C252.971 188.813 248.838 188.546 244.171 187.88C232.704 186.146 222.304 185.346 196.571 184.28L174.838 183.346L172.971 179.613C169.104 172.28 170.038 167.88 179.371 151.746C181.504 148.013 183.504 141.08 184.971 133.08C186.038 126.146 188.304 116.413 189.904 111.346C194.171 97.0797 192.971 80.2797 186.438 63.7464C183.638 56.813 180.971 47.213 180.304 42.413L179.371 33.7464L179.104 41.8797ZM189.504 196.013C192.838 196.146 182.704 196.68 166.971 197.08C151.238 197.613 133.238 198.413 126.971 198.813C117.771 199.613 116.704 199.48 120.971 198.28C129.371 196.146 154.304 194.546 169.504 195.213C177.104 195.48 186.171 195.88 189.504 196.013Z" fill="white"/>
<path d="M140.304 37.4797C140.304 38.013 144.171 44.2797 148.971 51.613C165.504 76.6797 170.304 91.7464 169.238 113.746C168.571 126.68 168.704 126.946 170.571 121.746C171.771 118.413 172.571 111.48 172.571 103.08C172.571 82.413 166.704 67.213 152.704 51.613C149.104 47.613 144.838 42.6797 143.238 40.5464C141.638 38.413 140.304 37.0797 140.304 37.4797Z" fill="white"/>
<path d="M194.571 114.013C194.038 114.413 193.638 116.013 193.638 117.346C193.638 120.146 198.438 120.68 199.371 118.013C200.571 114.413 197.104 111.346 194.571 114.013Z" fill="white"/>
<path d="M193.238 174.013C195.638 174.28 199.904 174.28 202.571 174.013C205.371 173.746 203.504 173.48 198.304 173.48C193.238 173.48 190.971 173.746 193.238 174.013Z" fill="white"/>
<path d="M219.371 175.346C221.371 175.613 224.571 175.613 226.704 175.346C228.704 175.08 226.971 174.813 222.971 174.813C218.971 174.813 217.237 175.08 219.371 175.346Z" fill="white"/>
<path d="M239.371 176.68C240.571 176.946 242.438 176.946 243.371 176.68C244.171 176.28 243.238 176.013 240.971 176.013C238.838 176.013 238.038 176.28 239.371 176.68Z" fill="white"/>
<path d="M86.7042 178.013C87.6375 178.413 88.8375 178.28 89.2375 177.88C89.7709 177.48 88.9709 177.08 87.5042 177.213C86.0375 177.213 85.6375 177.613 86.7042 178.013Z" fill="white"/>
<path d="M250.704 178.013C251.638 178.413 252.838 178.28 253.238 177.88C253.771 177.48 252.971 177.08 251.504 177.213C250.038 177.213 249.638 177.613 250.704 178.013Z" fill="white"/>
<path d="M80.0377 179.346C80.971 179.746 82.171 179.613 82.571 179.213C83.1044 178.813 82.3044 178.413 80.8377 178.546C79.371 178.546 78.971 178.946 80.0377 179.346Z" fill="white"/>
<path d="M268.038 182.013C268.971 182.413 270.171 182.28 270.571 181.88C271.104 181.48 270.304 181.08 268.838 181.213C267.371 181.213 266.971 181.613 268.038 182.013Z" fill="white"/>
<path d="M272.438 182.813C274.571 184.413 282.971 188.813 282.971 188.413C282.971 187.48 274.571 182.413 273.104 182.413C272.438 182.413 272.171 182.546 272.438 182.813Z" fill="white"/>
<path d="M50.9709 217.88C50.9709 275.213 57.3709 329.48 67.5043 359.48L70.7043 368.946L66.5709 369.746C27.1042 377.746 8.43758 384.28 1.77092 392.28C-1.29575 396.013 -0.362417 400.946 4.43758 406.013C9.23758 410.946 24.5709 419.346 38.7043 424.546C52.1709 429.613 51.3709 428.28 37.2376 421.88C14.9709 411.746 6.97092 405.613 6.97092 398.413C6.97092 392.013 18.9709 383.88 34.9709 379.346C40.7043 377.746 69.3709 371.746 71.5043 371.746C72.7043 371.746 79.1043 381.346 78.5709 382.013C78.1709 382.413 72.4376 383.746 66.0376 385.08L54.3043 387.48L68.9709 386.946L83.6376 386.413L93.3709 396.946C102.038 406.28 102.971 407.88 101.504 410.146C98.0376 415.746 102.838 419.613 120.038 425.346C149.638 435.08 167.238 437.613 192.571 435.613C218.838 433.746 241.371 428.013 248.571 421.48C252.038 418.413 251.638 413.213 248.038 411.88C246.304 411.213 244.438 411.08 243.771 411.48C241.771 412.68 247.638 404.813 250.971 401.746C252.438 400.413 256.838 395.08 260.571 390.146C268.171 379.746 267.238 380.013 288.971 383.08C296.304 384.146 303.238 384.946 304.304 384.946C308.838 384.813 298.704 382.146 285.238 379.746C277.238 378.413 270.438 376.946 270.038 376.546C269.638 376.146 270.304 374.28 271.504 372.413C273.371 369.48 274.704 369.08 281.104 369.08C290.171 369.08 312.304 373.48 322.704 377.346C332.838 381.08 341.638 389.613 341.638 395.88C341.638 407.48 308.838 426.813 272.971 436.146C251.238 441.88 236.304 443.746 200.571 445.08C162.971 446.546 114.838 445.08 93.1043 441.746C71.7709 438.546 51.7709 433.346 35.3709 426.68L28.5709 423.88L25.2376 426.813C20.5709 430.946 18.0376 439.08 20.5709 442.013C21.3709 442.946 21.5043 443.746 21.1043 443.746C20.5709 443.746 22.1709 445.48 24.5709 447.613C31.7709 453.746 44.8376 457.08 70.3043 459.213C82.7043 460.28 97.9043 461.88 103.904 462.68C127.371 465.88 211.238 459.213 244.971 451.48C256.304 448.946 274.304 442.68 273.238 441.613C272.971 441.346 264.704 443.213 254.838 445.613C236.704 450.28 204.438 455.213 201.371 454.013C200.438 453.613 201.238 453.213 203.104 453.213C208.438 453.08 247.371 445.346 264.571 440.946C285.371 435.746 296.838 431.613 314.038 422.813C338.038 410.546 349.771 400.146 347.238 393.213C344.038 383.88 322.838 373.213 299.238 369.08L289.638 367.346L300.571 363.746C330.571 354.013 350.438 337.746 359.371 315.48C370.171 288.28 366.304 262.413 349.371 248.946C345.638 246.013 342.304 244.013 341.904 244.413C341.504 244.813 343.638 247.613 346.571 250.813C362.304 266.946 365.238 292.146 354.171 315.746C351.638 321.213 347.371 328.28 344.704 331.48C330.704 348.546 298.171 364.013 281.371 361.746C276.171 360.946 274.304 361.346 272.304 363.08C269.904 365.213 269.771 365.213 268.438 360.946L267.238 356.413L267.104 361.08C266.704 372.013 256.038 387.88 235.904 407.213C221.638 420.946 212.971 426.146 203.238 426.546C200.838 426.68 200.438 426.946 202.038 427.346C204.838 428.013 222.971 424.28 229.371 421.613C234.571 419.48 235.104 421.613 229.904 424.28C222.838 428.013 204.971 430.68 183.638 431.346C153.638 432.413 130.704 428.946 123.771 422.28C121.238 419.88 121.371 419.88 127.104 421.613C130.304 422.546 135.638 423.746 138.971 424.146C143.638 424.813 142.171 424.013 132.304 420.546C120.038 416.146 119.238 415.613 109.104 404.813C74.7043 368.413 68.4376 349.613 58.4376 253.746C56.5709 236.146 54.4376 214.28 53.6376 205.213C52.8376 196.013 51.9043 188.28 51.6376 187.88C51.2376 187.613 50.9709 201.08 50.9709 217.88ZM194.038 455.346C192.304 455.613 189.638 455.613 188.038 455.346C186.304 455.08 187.638 454.813 190.971 454.813C194.304 454.813 195.638 455.08 194.038 455.346Z" fill="white"/>
<path d="M286.704 193.746C286.304 194.546 285.638 203.08 285.371 212.813C285.104 229.213 285.238 230.546 287.771 233.213L290.571 236.013L299.638 233.213C310.571 229.88 327.904 229.48 336.304 232.413C344.304 235.213 344.571 233.88 336.704 230.946C327.638 227.346 307.504 227.48 298.038 230.946C294.171 232.413 290.571 233.08 290.038 232.546C289.371 232.013 288.704 222.68 288.304 212.013C287.904 201.213 287.238 193.08 286.704 193.746Z" fill="white"/>
<path d="M282.971 232.946C282.971 233.746 283.504 234.68 284.304 235.08C285.104 235.48 285.238 234.946 284.838 233.88C283.904 231.48 282.971 231.08 282.971 232.946Z" fill="white"/>
<path d="M306.971 246.546C300.704 248.546 295.504 252.413 290.971 258.68L287.104 263.88L285.771 258.813C284.971 256.013 284.304 252.946 284.304 252.013C284.304 251.08 283.638 250.68 282.971 251.08C282.038 251.613 281.904 254.813 282.438 259.48C283.371 268.013 281.238 299.48 278.171 322.146C277.104 330.413 276.304 339.08 276.571 341.48C276.971 345.48 277.238 345.213 279.371 338.013L281.771 330.413L286.971 335.88C292.038 341.213 292.438 341.346 299.504 340.813C309.904 340.013 320.571 334.013 331.904 322.946C343.771 311.346 349.104 300.946 350.438 286.946C352.038 270.28 345.104 254.946 333.371 248.946C326.838 245.613 313.904 244.413 306.971 246.546ZM329.638 253.346C333.104 255.213 337.238 258.813 339.638 262.146C343.504 267.746 343.638 268.546 343.638 282.146C343.504 300.68 340.571 308.413 329.371 320.413C320.038 330.546 305.904 338.413 297.238 338.413C292.838 338.413 291.104 337.613 287.371 333.48C283.504 329.48 282.838 328.013 283.504 324.546C284.838 317.346 286.971 290.146 286.971 280.146C286.971 272.68 287.504 270.013 289.638 267.48C290.971 265.88 293.771 262.413 295.771 260.013C303.638 250.28 318.038 247.48 329.638 253.346Z" fill="white"/>
<path d="M292.038 422.013C292.971 422.413 294.171 422.28 294.571 421.88C295.104 421.48 294.304 421.08 292.838 421.213C291.371 421.213 290.971 421.613 292.038 422.013Z" fill="white"/>
<path d="M274.304 425.746C267.771 427.48 263.104 428.813 264.171 428.946C266.571 429.08 289.638 423.746 289.638 422.946C289.638 422.013 286.971 422.546 274.304 425.746Z" fill="white"/>
<path d="M188.704 428.68C189.904 428.946 191.771 428.946 192.704 428.68C193.504 428.28 192.571 428.013 190.304 428.013C188.171 428.013 187.371 428.28 188.704 428.68Z" fill="white"/>
<path d="M257.371 430.013C258.171 430.28 259.771 430.28 260.704 430.013C261.504 429.613 260.838 429.346 258.971 429.346C257.104 429.346 256.438 429.613 257.371 430.013Z" fill="white"/>
</svg>
